<svg id="Capa_1" enable-background="new 0 0 497 497" height="512" viewBox="0 0 497 497" width="512" xmlns="http://www.w3.org/2000/svg"><path d="m16.999 0c-8.284 0-15 6.716-15 15v467c0 8.284 6.716 15 15 15s15-6.716 15-15v-467c0-8.284-6.716-15-15-15z" fill="#ffd06a"/><path d="m487.493 127.5h-18.494l-120 136 120 136h18.494c5.419 0 9.049-5.57 6.862-10.527l-55.356-125.473 55.356-125.473c2.187-4.957-1.444-10.527-6.862-10.527z" fill="#ff3e3a"/><path d="m468.999 127.5h-226v272h226l-60-136z" fill="#ff5d34"/><path d="m242.999 37.5h-30l45 302 30 15v-272c0-24.75-20.25-45-45-45z" fill="#ff3e3a"/><path d="m212.999 37.5h-181c80 75.111 80 196.889 0 272h166l60 30v-257c0-24.75-20.25-45-45-45z" fill="#ff5d34"/><path d="m257.999 312.071-15 87.429c24.853 0 45-20.147 45-45 0-19.592-12.524-36.25-30-42.429z" fill="#cc3245"/><path d="m257.999 354.5v-42.429c-4.693-1.659-9.739-2.571-15-2.571h-45v45c0 24.853 20.147 45 45 45 8.284 0 15-20.147 15-45z" fill="#ff3e3a"/></svg>